<?xml version="1.0"?>
<svg xmlns="http://www.w3.org/2000/svg" xmlns:xlink="http://www.w3.org/1999/xlink" version="1.1" id="Capa_1" x="0px" y="0px" viewBox="0 0 512 512" style="enable-background:new 0 0 512 512;" xml:space="preserve" width="512px" height="512px" class=""><g><path style="fill:#1E821E" d="M415.742,480.258c-33.843,23.562-83.947,34.293-146.732,12.271  c-66.615-23.362-116.779-48.334-151.202-74.906c-47.994-37.093-65.355-77.306-53.894-120.58c3.12-11.771,5.53-24.032,7.391-36.353  c2.2-14.591,3.62-30.422,4.5-46.114c1.14-20.332,1.36-40.433,1.19-57.305c-0.21-21.812-1.08-38.233-1.48-42.813h229.748v112.899  c0,32.773,36.873,61.455,80.726,89.637c18.521,11.891,38.273,23.702,57.035,35.703C481.337,377.19,467.856,443.956,415.742,480.258z  " data-original="#BE2121" class="" data-old_color="#BE2121"/><path style="fill:#135B13" d="M393.72,492.59c-32.183,14.201-74.372,17.598-124.712-0.062  C109.492,436.595,44.236,371.338,63.917,297.039c17.774-67.1,12.741-169.398,11.601-182.584h27.522  c1.481,26.248,3.242,115.638-12.192,173.914c-19.681,74.299,45.576,139.555,205.091,195.49  C333.27,496.952,366.106,498.464,393.72,492.59z" data-original="#B01717" class="" data-old_color="#B01717"/><path style="fill:#C21919" d="M305.263,157.543v59.505l-15.381,21.532c-3.26,4.56-8.501,7.291-14.111,7.331h-0.13  c-5.56,0-10.791-2.64-14.091-7.121l-28.792-39.073l-27.302,38.223c-3.26,4.56-8.501,7.291-14.111,7.331h-0.13  c-5.56,0-10.791-2.64-14.091-7.121l-28.792-39.083l-27.302,38.233c-3.26,4.56-8.501,7.291-14.111,7.331  c-5.63,0.08-10.891-2.61-14.221-7.121l-16.891-22.932c1.14-20.332,1.36-40.433,1.19-57.305c0.27,0.31,0.53,0.63,0.78,0.97  l28.792,39.083l27.302-38.233c3.26-4.56,8.511-7.281,14.111-7.331c5.64-0.06,10.901,2.61,14.221,7.121l28.792,39.083l27.302-38.233  c3.26-4.56,8.511-7.281,14.121-7.321c5.61-0.07,10.891,2.6,14.211,7.111l28.792,39.083l27.302-38.223  C303.473,159.333,304.323,158.383,305.263,157.543z" data-original="#1E821E" class="active-path" data-old_color="#1E821E"/><path style="fill:#FFD30A" d="M157.378,345.733c0,21.566-8.028,41.256-21.255,56.245c-5.313,6.038-11.487,11.311-18.313,15.641  c-48-37.093-65.36-77.303-53.893-120.58c3.118-11.767,5.531-24.031,7.386-36.347c0.342-0.01,0.684-0.01,1.025-0.01  c8.297,0,16.314,1.191,23.896,3.408C131.566,274.407,157.378,307.056,157.378,345.733z" data-original="#F8F7DD" class="" data-old_color="#F8F7DD"/><path style="fill:#D0A937" d="M136.124,401.977c-5.313,6.038-11.487,11.311-18.313,15.641c-48-37.093-65.36-77.303-53.893-120.58  c3.118-11.767,5.531-24.031,7.386-36.347c0.342-0.01,0.684-0.01,1.025-0.01c8.297,0,16.314,1.191,23.896,3.408  c-1.502,8.235-3.283,16.366-5.375,24.28C80.096,328.952,94.691,366.832,136.124,401.977z" data-original="#EDE8BF" class="" data-old_color="#EDE8BF"/><g>
	<path style="fill:#FFD30A" d="M415.742,480.254c-29.686-22.239-48.901-57.706-48.901-97.647c0-24.155,7.023-46.664,19.153-65.608   c18.521,11.891,38.273,23.7,57.033,35.694C481.34,377.19,467.854,443.96,415.742,480.254z" data-original="#F8F7DD" class="" data-old_color="#F8F7DD"/>
	<path style="fill:#FFD30A" d="M298.253,133.447H84.532c-20.782,0-37.629-16.847-37.629-37.629V45.13   c0-20.782,16.847-37.629,37.629-37.629h213.72c20.782,0,37.629,16.847,37.629,37.629v50.688   C335.882,116.599,319.034,133.447,298.253,133.447z" data-original="#F8F7DD" class="" data-old_color="#F8F7DD"/>
</g><path style="fill:#D0A937" d="M335.881,74.743v21.079c0,20.779-16.842,37.621-37.631,37.621H84.529  c-20.779,0-37.631-16.842-37.631-37.621V74.743c0,20.789,16.852,37.631,37.631,37.631h213.72  C319.038,112.374,335.881,95.532,335.881,74.743z" data-original="#EDE8BF" class="" data-old_color="#EDE8BF"/><path style="fill:#FFD30A" d="M436.884,164.558c0,16.303-12.565,29.697-28.547,30.991c-0.849,0.083-1.699,0.114-2.569,0.114  c-17.174,0-31.105-13.932-31.105-31.105c0-8.069,3.066-15.423,8.111-20.955c5.686-6.245,13.89-10.162,22.995-10.162  C422.952,133.443,436.884,147.374,436.884,164.558z" data-original="#F8F7DD" class="" data-old_color="#F8F7DD"/><path style="fill:#D0A937" d="M409.361,185.792c0,3.345-0.352,6.609-1.025,9.758c-0.849,0.083-1.699,0.114-2.569,0.114  c-17.174,0-31.105-13.932-31.105-31.105c0-8.069,3.066-15.423,8.111-20.955C398.496,151.124,409.361,167.189,409.361,185.792z" data-original="#EDE8BF" class="" data-old_color="#EDE8BF"/><circle style="fill:#FFD30A" cx="362.609" cy="185.785" r="31.112" data-original="#F8F7DD" class="" data-old_color="#F8F7DD"/><path d="M211.559,242.298l21.295-29.81l22.658,30.75c4.692,6.37,12.218,10.172,20.13,10.172h0.185  c7.978-0.057,15.513-3.971,20.16-10.471l3.012-4.216c3.714,17.027,15.914,33.861,37.608,52.128c1.407,1.184,3.122,1.763,4.827,1.763  c2.136,0,4.258-0.908,5.741-2.669c2.668-3.168,2.262-7.901-0.906-10.569c-22.546-18.983-33.505-35.998-33.505-52.017v-88.818  c2.618-0.892,5.128-2.014,7.506-3.349c0.403,11.049,2.173,24.652,7.786,33.407c-2.588,5.181-4.053,11.017-4.053,17.191  c0,21.29,17.319,38.609,38.609,38.609c15.39,0,28.702-9.055,34.899-22.115c2.688,0.586,5.447,0.882,8.26,0.882  c21.286,0,38.604-17.321,38.604-38.613c0-21.286-17.317-38.603-38.604-38.603c-15.279,0-28.698,8.782-34.938,22.12  c-0.313-0.068-0.627-0.132-0.942-0.192c-18.583-5.211-29.248-21.359-33.165-28.5c4.218-6.863,6.657-14.931,6.657-23.56V45.13  C343.382,20.246,323.138,0,298.253,0h-62.305c-4.143,0-7.501,3.358-7.501,7.501s3.357,7.501,7.501,7.501h62.305  c16.612,0,30.128,13.516,30.128,30.128v50.688c0,16.612-13.516,30.127-30.128,30.127H84.532c-16.612,0-30.128-13.515-30.128-30.127  V45.13c0-16.612,13.516-30.128,30.128-30.128h121.746c4.143,0,7.501-3.358,7.501-7.501S210.421,0,206.278,0H84.532  c-24.885,0-45.13,20.246-45.13,45.13v50.688c0,19.484,12.412,36.121,29.744,42.425c0.854,29.078,1.44,104.349-12.483,156.871  c-8.193,30.938-2.554,60.586,16.759,88.119c18.925,26.976,51.665,52.577,97.316,76.091c1.099,0.566,2.272,0.834,3.429,0.834  c2.719,0,5.343-1.483,6.674-4.067c1.897-3.683,0.45-8.206-3.232-10.103c-17.814-9.176-33.518-18.625-47.058-28.3  c21.666-17.481,34.329-43.671,34.329-71.956c0-48.568-37.607-88.504-85.229-92.25c0.767-6.093,1.422-12.23,1.98-18.349l5.032,6.832  c4.783,6.479,12.37,10.27,20.31,10.166c7.978-0.057,15.513-3.97,20.161-10.472l21.293-29.817l22.659,30.757  c4.692,6.37,12.218,10.172,20.13,10.172h0.185C199.376,252.713,206.911,248.799,211.559,242.298z M362.613,209.397  c-13.018,0-23.608-10.59-23.608-23.608c0-13.018,10.591-23.608,23.608-23.608c13.017,0,23.607,10.59,23.607,23.608  C386.22,198.807,375.629,209.397,362.613,209.397z M405.771,140.951c13.015,0,23.603,10.588,23.603,23.602  c0,13.02-10.588,23.612-23.603,23.612c-1.565,0-3.1-0.156-4.599-0.45c0.031-0.638,0.049-1.28,0.049-1.925  c0-13.119-6.583-24.724-16.612-31.704C388.499,146.156,396.575,140.951,405.771,140.951z M344.611,151.648  c-2.212,1.171-4.297,2.549-6.229,4.111c-1.091-3.304-1.872-7.45-2.384-11.919C338.516,146.517,341.39,149.17,344.611,151.648z   M84.532,140.947h213.23v13.61c-0.396,0.476-0.782,0.961-1.143,1.467l-21.293,29.809l-22.658-30.755  c-4.757-6.464-12.402-10.255-20.306-10.165c-7.987,0.057-15.526,3.966-20.172,10.462l-21.293,29.817l-22.657-30.755  c-4.752-6.457-12.385-10.293-20.328-10.174c-7.98,0.071-15.512,3.984-20.149,10.472l-21.293,29.817L84.496,154.72  c-0.058-5.018-0.152-9.639-0.262-13.781C84.333,140.94,84.432,140.947,84.532,140.947z M149.878,345.733  c0,24.951-11.758,47.963-31.703,62.56c-13.584-10.982-24.441-22.228-32.471-33.675c-16.89-24.078-21.646-48.828-14.539-75.662  c2.561-9.662,4.653-19.971,6.359-30.579C117.869,271.061,149.878,304.719,149.878,345.733z M191.345,237.769h-0.131  c-3.165,0-6.175-1.521-8.053-4.068l-28.792-39.083c-1.425-1.935-3.68-3.037-6.094-3.052c-2.402,0.018-4.651,1.186-6.048,3.142  l-27.3,38.23c-1.859,2.602-4.874,4.169-8.115,4.192c-3.113,0.026-6.163-1.479-8.076-4.068l-15.426-20.943  c0.626-11.202,0.973-22.062,1.134-32.178l16.085,21.834c1.426,1.935,3.646,3.077,6.094,3.052c2.402-0.018,4.651-1.186,6.048-3.142  l27.3-38.23c1.855-2.596,4.875-4.163,8.09-4.192c0.034,0,0.068,0,0.104,0c3.135,0,6.117,1.515,7.999,4.069l28.792,39.083  c1.425,1.935,3.653,3.068,6.094,3.052c2.402-0.018,4.651-1.186,6.048-3.142l27.299-38.229c1.856-2.596,4.875-4.16,8.114-4.183  c3.137-0.036,6.18,1.478,8.079,4.059l28.792,39.083c1.414,1.92,3.655,3.052,6.038,3.052c0.019,0,0.037,0,0.055,0  c2.403-0.018,4.651-1.186,6.048-3.141l16.238-22.734v34.414l-13.982,19.572c-1.86,2.602-4.873,4.169-8.009,4.192h-0.131  c-3.165,0-6.175-1.521-8.053-4.069l-28.791-39.073c-1.425-1.934-3.674-3.04-6.094-3.051c-2.402,0.018-4.65,1.186-6.047,3.141  l-27.302,38.22C197.493,236.179,194.479,237.747,191.345,237.769z" data-original="#000000" class="" style="fill:#000000" data-old_color="#000000"/><path d="M447.068,346.376c-9.114-5.827-18.585-11.687-27.745-17.352c-16.972-10.5-34.523-21.357-49.931-32.109  c-3.399-2.371-8.074-1.538-10.443,1.859c-2.37,3.397-1.538,8.073,1.858,10.443c4.849,3.384,9.902,6.765,15.052,10.134  c-10.817,19.26-16.518,40.97-16.518,63.256c0,37.693,15.882,72.536,43.889,97.118c-32.353,18.8-77.416,24.775-131.738,5.726  c-24.247-8.502-46.641-17.358-66.557-26.324c-3.774-1.7-8.219-0.016-9.918,3.761c-1.7,3.777-0.017,8.219,3.761,9.919  c20.306,9.14,43.1,18.156,67.75,26.8c23.555,8.26,46.594,12.393,68.473,12.393c20.285,0,39.573-3.555,57.329-10.671  c30.768-12.33,56.253-35.501,69.917-63.569C480.385,400.501,474.286,363.777,447.068,346.376z M448.76,431.194  c-7.317,15.028-18.332,28.805-32.609,39.838c-26.632-21.84-41.809-53.773-41.809-88.423c0-19.402,4.879-38.308,14.153-55.131  c7.613,4.818,15.328,9.598,22.936,14.304c9.113,5.637,18.536,11.467,27.557,17.233C459.473,372.112,463.401,401.118,448.76,431.194z  " data-original="#000000" class="" style="fill:#000000" data-old_color="#000000"/></g> </svg>
