<?xml version="1.0"?>
<svg xmlns="http://www.w3.org/2000/svg" xmlns:xlink="http://www.w3.org/1999/xlink" version="1.1" id="Layer_1" x="0px" y="0px" viewBox="0 0 512 512" style="enable-background:new 0 0 512 512;" xml:space="preserve" width="512px" height="512px" class=""><g><g transform="translate(1 1)">
	<polygon style="fill:#FCC309;" points="229.4,127 263.533,127 263.533,92.867 229.4,92.867  " data-original="#FCC309" class=""/>
	<g>
		<path style="fill:#FF0909" d="M255,86.04c-3.413,8.533-14.507,8.533-17.92,0l-14.507-39.253    C216.6,29.72,225.987,9.24,243.053,7.533c0.853,0,1.707,0,3.413,0c0.853,0,2.56,0,3.413,0    c17.067,1.707,26.453,22.187,20.48,39.253L255,86.04z" data-original="#FFDD09" class="" data-old_color="#FFDD09"/>
		<path style="fill:#FF0909" d="M266.947,8.387c-0.853,0-1.707,0-3.413,0c-0.853,0-2.56,0-3.413,0c-1.707,0-3.413,0.853-5.12,1.707    c13.653,5.12,20.48,22.187,17.067,40.96l-8.533,33.28c0,0,0,0.853-0.853,0.853c3.413,7.68,5.973,10.24,9.387,1.707l14.507-39.253    C293.4,31.427,284.013,10.947,266.947,8.387" data-original="#FFDD09" class="" data-old_color="#FFDD09"/>
	</g>
	<path style="fill:#FD9808;" d="M249.88,8.387c-0.853,0-1.707,0-3.413,0c-0.853,0-2.56,0-3.413,0c-1.707,0-3.413,0.853-5.12,1.707   c13.653,5.12,20.48,22.187,17.067,40.96l-8.533,33.28c0,0,0,0.853-0.853,0.853c3.413,7.68,5.973,10.24,9.387,1.707l14.507-39.253   C276.333,31.427,266.947,10.947,249.88,8.387" data-original="#FD9808" class=""/>
	<g>
		<path style="fill:#FCC309;" d="M178.2,203.8L178.2,203.8c45.227,11.093,91.307,11.093,136.533,0v-51.2H178.2V203.8z" data-original="#FCC309" class=""/>
		<polygon style="fill:#FCC309;" points="195.267,152.6 297.667,152.6 297.667,127 195.267,127   " data-original="#FCC309" class=""/>
	</g>
	<g>
		<path style="fill:#FD9808;" d="M289.133,152.6v51.2c-18.773,4.267-36.693,7.68-55.467,8.533    c27.307,0.853,53.76-1.707,81.067-8.533v-51.2H289.133z" data-original="#FD9808" class=""/>
		<polygon style="fill:#FD9808;" points="272.067,152.6 297.667,152.6 297.667,127 272.067,127   " data-original="#FD9808" class=""/>
	</g>
	<g>
		<path style="fill:#FFFFFF;" d="M203.8,152.6v51.2c18.773,4.267,36.693,7.68,55.467,8.533c-27.307,0.853-53.76-1.707-81.067-8.533    v-51.2H203.8z" data-original="#FFFFFF" class=""/>
		<polygon style="fill:#FFFFFF;" points="195.267,152.6 220.867,152.6 220.867,127 195.267,127   " data-original="#FFFFFF" class=""/>
	</g>
	<g>
		<path style="fill:#FCC309;" d="M314.733,152.6v51.2c-18.773,4.267-36.693,7.68-55.467,8.533    c24.747,0.853,49.493-0.853,74.24-6.827c4.267-0.853,6.827-4.267,6.827-8.533v-35.84c0-5.12-3.413-8.533-8.533-8.533H314.733z" data-original="#FCC309" class=""/>
		<path style="fill:#FCC309;" d="M297.667,127v25.6h25.6v-17.067c0-5.12-3.413-8.533-8.533-8.533H297.667z" data-original="#FCC309" class=""/>
	</g>
	<path style="fill:#FFFFFF;" d="M243.053,9.24c0.853,0,1.707,0,3.413,0c0.853,0,2.56,0,3.413,0c1.707,0,3.413,0.853,5.12,1.707   c-13.653,5.12-21.333,22.187-17.067,40.96l8.533,33.28c0,0,0,0.853,0.853,0.853c-3.413,7.68-5.973,10.24-9.387,1.707   l-14.507-39.253C216.6,31.427,225.987,10.947,243.053,9.24" data-original="#FFFFFF" class=""/>
	<path d="M263.533,135.533H229.4c-5.12,0-8.533-3.413-8.533-8.533V92.867c0-5.12,3.413-8.533,8.533-8.533h34.133   c5.12,0,8.533,3.413,8.533,8.533V127C272.067,132.12,268.653,135.533,263.533,135.533z M237.933,118.467H255V101.4h-17.067V118.467   z" data-original="#000000" class=""/>
	<path d="M246.467,101.4L246.467,101.4c-7.68,0-14.507-5.12-17.067-11.947L214.893,50.2c-4.267-11.093-3.413-23.893,3.413-34.987   C223.427,5.827,232.813,0.707,242.2-1c2.56,0,5.973,0,8.533,0c10.24,0.853,18.773,6.827,23.893,16.213   c5.973,10.24,7.68,23.04,3.413,34.987l-14.507,39.253l0,0C260.973,96.28,254.147,101.4,246.467,101.4z M255,86.04L255,86.04   L255,86.04z M246.467,16.067c-0.853,0-1.707,0-2.56,0c-5.973,0.853-9.387,5.12-11.093,8.533   c-3.413,5.973-4.267,13.653-1.707,19.627l14.507,39.253c0,0.853,0.853,0.853,0.853,0.853s0.853,0,0.853-0.853l14.507-39.253   c2.56-6.827,1.707-14.507-1.707-19.627c-1.707-3.413-5.12-7.68-11.093-8.533C248.173,16.067,247.32,16.067,246.467,16.067z" data-original="#000000" class=""/>
	<path style="fill:#FF0909" d="M303.64,206.36c-37.547,7.68-75.947,7.68-113.493,0c-57.173,22.187-97.28,77.653-97.28,142.507   c0,84.48,69.12,153.6,153.6,153.6s153.6-69.12,153.6-153.6C400.067,284.013,359.96,228.547,303.64,206.36" data-original="#FFDD09" class="" data-old_color="#FFDD09"/>
	<path style="fill:#FD9808;" d="M303.64,212.333c-5.973,0.853-11.947,2.56-18.773,3.413c52.907,23.893,89.6,76.8,89.6,139.093   c0,80.213-62.293,146.773-140.8,152.747c4.267,0,8.533,0.853,12.8,0.853c84.48,0,153.6-69.12,153.6-153.6   C400.067,289.987,359.96,235.373,303.64,212.333" data-original="#FD9808" class=""/>
	<path style="fill:#FCC309" d="M92.867,348.867c0,17.92,3.413,34.987,8.533,51.2h290.133c3.413-8.533,5.12-17.92,6.827-27.307   c0.853-7.68,1.707-15.36,1.707-23.893c0-17.92-3.413-34.987-8.533-51.2H101.4C96.28,313.88,92.867,330.947,92.867,348.867" data-original="#54C9FD" class="" data-old_color="#54C9FD"/>
	<g>
		<path style="fill:#15A143" d="M272.067,348.867c0-14.507-11.093-25.6-25.6-25.6c-14.507,0-25.6,11.093-25.6,25.6    c0,14.507,11.093,25.6,25.6,25.6C260.973,374.467,272.067,363.373,272.067,348.867" data-original="#DB4D6C" class="" data-old_color="#DB4D6C"/>
		<path style="fill:#15A143" d="M178.2,348.867c0-14.507-11.093-25.6-25.6-25.6s-25.6,11.093-25.6,25.6    c0,14.507,11.093,25.6,25.6,25.6S178.2,363.373,178.2,348.867" data-original="#DB4D6C" class="" data-old_color="#DB4D6C"/>
		<path style="fill:#15A143" d="M365.933,348.867c0-14.507-11.093-25.6-25.6-25.6c-14.507,0-25.6,11.093-25.6,25.6    c0,14.507,11.093,25.6,25.6,25.6C354.84,374.467,365.933,363.373,365.933,348.867" data-original="#DB4D6C" class="" data-old_color="#DB4D6C"/>
	</g>
	<path style="fill:#FFFFFF;" d="M189.293,212.333c5.973,0.853,11.947,2.56,18.773,3.413c-52.907,23.893-89.6,76.8-89.6,139.093   c0,80.213,62.293,146.773,140.8,152.747c-4.267,0-8.533,0.853-12.8,0.853c-84.48,0-153.6-69.12-153.6-153.6   C92.867,289.987,132.973,235.373,189.293,212.333" data-original="#FFFFFF" class=""/>
	<path style="fill:#FCC309" d="M391.533,297.667h-25.6c5.973,16.213,8.533,33.28,8.533,51.2c0,8.533-0.853,16.213-1.707,23.893   c-1.707,9.387-4.267,18.773-6.827,27.307h25.6c3.413-8.533,5.12-17.92,6.827-27.307c0.853-7.68,1.707-15.36,1.707-23.893   C400.067,330.947,396.653,313.88,391.533,297.667" data-original="#15A143" class="active-path" data-old_color="#15A143"/>
	<path style="fill:#FFFFFF;" d="M101.4,297.667H127c-5.973,16.213-8.533,33.28-8.533,51.2c0,8.533,0.853,16.213,1.707,23.893   c1.707,9.387,4.267,18.773,6.827,27.307h-25.6c-3.413-8.533-5.12-17.92-6.827-27.307c-0.853-7.68-1.707-15.36-1.707-23.893   C92.867,330.947,96.28,313.88,101.4,297.667" data-original="#FFFFFF" class=""/>
	<path style="fill:#FF0909" d="M329.24,203.8c-5.973,0.853-11.947,2.56-18.773,3.413c52.907,23.893,89.6,76.8,89.6,139.093   c0,80.213-62.293,146.773-140.8,152.747c4.267,0,8.533,0.853,12.8,0.853c84.48,0,153.6-69.12,153.6-153.6   C425.667,281.453,385.56,226.84,329.24,203.8" data-original="#FFDD09" class="" data-old_color="#FFDD09"/>
	<path d="M246.467,220.867c-23.893,0-46.933-2.56-69.973-8.533c-4.267-0.853-6.827-4.267-6.827-8.533v-51.2   c0-5.12,3.413-8.533,8.533-8.533h136.533c5.12,0,8.533,3.413,8.533,8.533v51.2c0,4.267-2.56,7.68-6.827,8.533   C293.4,218.307,270.36,220.867,246.467,220.867z M186.733,196.973c39.253,8.533,80.213,8.533,119.467,0v-35.84H186.733V196.973z" data-original="#000000" class=""/>
	<path d="M297.667,161.133h-102.4c-5.12,0-8.533-3.413-8.533-8.533V127c0-5.12,3.413-8.533,8.533-8.533h102.4   c5.12,0,8.533,3.413,8.533,8.533v25.6C306.2,157.72,302.787,161.133,297.667,161.133z M203.8,144.067h85.333v-8.533H203.8V144.067z   " data-original="#000000" class=""/>
	<path d="M165.4,270.36c-2.56,0-4.267-0.853-5.973-2.56c-3.413-3.413-3.413-8.533,0-11.947c9.387-8.533,19.627-16.213,30.72-21.333   c4.267-1.707,9.387,0,11.093,4.267s0,9.387-4.267,11.093c-9.387,5.12-18.773,11.093-26.453,18.773   C168.813,269.507,167.107,270.36,165.4,270.36z" data-original="#000000" class=""/>
	<path d="M391.533,408.6H101.4c-3.413,0-6.827-2.56-7.68-5.973c-5.973-17.067-9.387-35.84-9.387-53.76   c0-18.773,3.413-36.693,9.387-53.76c0.853-3.413,4.267-5.973,7.68-5.973h290.133c3.413,0,6.827,2.56,7.68,5.973   c5.973,17.92,9.387,35.84,9.387,53.76c0,8.533-0.853,17.067-1.707,25.6c-1.707,9.387-4.267,19.627-7.68,29.013   C398.36,406.04,394.947,408.6,391.533,408.6z M108.227,391.533H385.56c1.707-6.827,3.413-13.653,5.12-19.627   c0.853-7.68,1.707-15.36,1.707-23.04c0-14.507-2.56-29.013-6.827-42.667H108.227c-4.267,13.653-6.827,28.16-6.827,42.667   C101.4,363.373,103.96,377.88,108.227,391.533z" data-original="#000000" class=""/>
	<path d="M246.467,511c-89.6,0-162.133-72.533-162.133-162.133c0-66.56,40.107-125.44,102.4-150.187   c1.707-0.853,3.413-0.853,5.12-0.853c36.693,7.68,73.387,7.68,110.08,0c1.707,0,3.413,0,5.12,0.853   c62.293,24.747,102.4,83.627,102.4,150.187C408.6,438.467,336.067,511,246.467,511z M190.147,214.893   c-53.76,23.04-88.747,75.093-88.747,133.973c0,80.213,64.853,145.067,145.067,145.067s145.067-64.853,145.067-145.067   c0-58.88-34.987-110.933-88.747-133.973C265.24,222.573,227.693,222.573,190.147,214.893z" data-original="#000000" class=""/>
	<path d="M246.467,383c-18.773,0-34.133-15.36-34.133-34.133c0-18.773,15.36-34.133,34.133-34.133s34.133,15.36,34.133,34.133   C280.6,367.64,265.24,383,246.467,383z M246.467,331.8c-9.387,0-17.067,7.68-17.067,17.067c0,9.387,7.68,17.067,17.067,17.067   s17.067-7.68,17.067-17.067C263.533,339.48,255.853,331.8,246.467,331.8z" data-original="#000000" class=""/>
	<path d="M152.6,383c-18.773,0-34.133-15.36-34.133-34.133c0-18.773,15.36-34.133,34.133-34.133s34.133,15.36,34.133,34.133   C186.733,367.64,171.373,383,152.6,383z M152.6,331.8c-9.387,0-17.067,7.68-17.067,17.067c0,9.387,7.68,17.067,17.067,17.067   c9.387,0,17.067-7.68,17.067-17.067C169.667,339.48,161.987,331.8,152.6,331.8z" data-original="#000000" class=""/>
	<path d="M340.333,383c-18.773,0-34.133-15.36-34.133-34.133c0-18.773,15.36-34.133,34.133-34.133s34.133,15.36,34.133,34.133   C374.467,367.64,359.107,383,340.333,383z M340.333,331.8c-9.387,0-17.067,7.68-17.067,17.067c0,9.387,7.68,17.067,17.067,17.067   c9.387,0,17.067-7.68,17.067-17.067C357.4,339.48,349.72,331.8,340.333,331.8z" data-original="#000000" class=""/>
</g></g> </svg>
